# xmcd CD database file
#
# Track frame offsets:
#	150
#	5257
#	38955
#	67118
#	89899
#	118716
#	124505
#	147345
#	186414
#	214625
#	244758
#
# Disc length: 3701 seconds
#
# Revision: 0
# Processed by: cddbd v1.5PL3 Copyright (c) Steve Scherf et al.
# Submitted via: CDex 1.51
#
DISCID=a30e730b
DTITLE=Bitches Brew - Gooey Dewey
DYEAR=2001
DGENRE=Jazz
TTITLE0=Invocation
TTITLE1=On the Corner
TTITLE2=Gooey Dewey
TTITLE3=Rated X
TTITLE4=Coagulation
TTITLE5=Interlude
TTITLE6=Black Satin
TTITLE7=Ife
TTITLE8=Moja
TTITLE9=Dis
TTITLE10=Bitches Brew
EXTD=YEAR: 2001
EXTT0=
EXTT1=
EXTT2=
EXTT3=
EXTT4=
EXTT5=
EXTT6=
EXTT7=
EXTT8=
EXTT9=
EXTT10=
PLAYORDER=
